#define 0662f0a2cd274ae282324f820755a79f04VTMms9C3ND78ZN_width 256
#define 0662f0a2cd274ae282324f820755a79f04VTMms9C3ND78ZN_height 237
static char 0662f0a2cd274ae282324f820755a79f04VTMms9C3ND78ZN_bits[] = {
  0x00, 0x00, 0x00, 0x00, 0x00, 0x00, 0x00, 0x00, 0x00, 0x00, 0x00, 0x00, 
  0x00, 0x00, 0x00, 0x80, 0x01, 0x00, 0x00, 0x00, 0x00, 0x00, 0x00, 0x00, 
  0x00, 0x00, 0x00, 0x00, 0x00, 0x00, 0x00, 0x00, 0x00, 0x00, 0x00, 0x00, 
  0x00, 0x00, 0x00, 0x00, 0x00, 0x00, 0x00, 0x00, 0x00, 0x00, 0x00, 0xC0, 
  0x03, 0x00, 0x00, 0x00, 0x00, 0x00, 0x00, 0x00, 0x00, 0x00, 0x00, 0x00, 
  0x00, 0x00, 0x00, 0x00, 0x00, 0x00, 0x00, 0x00, 0x00, 0x00, 0x00, 0x00, 
  0x00, 0x00, 0x00, 0x00, 0x00, 0x00, 0x00, 0xF0, 0x0F, 0x00, 0x00, 0x00, 
  0x00, 0x00, 0x00, 0x00, 0x00, 0x00, 0x00, 0x00, 0x00, 0x00, 0x00, 0x00, 
  0x00, 0x00, 0x00, 0x00, 0x00, 0x00, 0x00, 0x00, 0x00, 0x00, 0x00, 0x00, 
  0x00, 0x00, 0x00, 0xF8, 0x1F, 0x00, 0x00, 0x00, 0x00, 0x00, 0x00, 0x00, 
  0x00, 0x00, 0x00, 0x00, 0x00, 0x00, 0x00, 0x00, 0x00, 0x00, 0x00, 0x00, 
  0x00, 0x00, 0x00, 0x00, 0x00, 0x00, 0x00, 0x00, 0x00, 0x00, 0x00, 0x3C, 
  0x7C, 0x00, 0x00, 0x00, 0x00, 0x00, 0x00, 0x00, 0x00, 0x00, 0x00, 0x00, 
  0x00, 0x00, 0x00, 0x00, 0x00, 0x00, 0x00, 0x00, 0x00, 0x00, 0x00, 0x00, 
  0x00, 0x00, 0x00, 0x00, 0x00, 0x00, 0x00, 0x1F, 0xF8, 0x00, 0x00, 0x00, 
  0x00, 0x00, 0x00, 0x00, 0x00, 0x00, 0x00, 0x00, 0x00, 0x00, 0x00, 0x00, 
  0x00, 0x00, 0x00, 0x00, 0x00, 0x00, 0x00, 0x00, 0x00, 0x00, 0x00, 0x00, 
  0x00, 0x00, 0xC0, 0x07, 0xE0, 0x03, 0x00, 0x00, 0x00, 0x00, 0x00, 0x00, 
  0x00, 0x00, 0x00, 0x00, 0x00, 0x00, 0x00, 0x00, 0x00, 0x00, 0x00, 0x00, 
  0x00, 0x00, 0x00, 0x00, 0x00, 0x00, 0x00, 0x00, 0x00, 0x00, 0xC0, 0x03, 
  0xC0, 0x03, 0x00, 0x00, 0x00, 0x00, 0x00, 0x00, 0x00, 0x00, 0x00, 0x00, 
  0x00, 0x00, 0x00, 0x00, 0x00, 0x00, 0x00, 0x00, 0x00, 0x00, 0x00, 0x00, 
  0x00, 0x00, 0x00, 0x00, 0x00, 0x00, 0xF0, 0x01, 0x84, 0x0F, 0x00, 0x00, 
  0x00, 0x00, 0x00, 0x00, 0x00, 0x00, 0x00, 0x00, 0x00, 0x00, 0x00, 0x00, 
  0x00, 0x00, 0x00, 0x00, 0x00, 0x00, 0x00, 0x00, 0x00, 0x00, 0x00, 0x00, 
  0x00, 0x00, 0x78, 0x28, 0x00, 0x3E, 0x00, 0x00, 0x00, 0x00, 0x00, 0x00, 
  0x00, 0x00, 0x00, 0x00, 0x00, 0x00, 0x00, 0x00, 0x00, 0x00, 0x00, 0x00, 
  0x00, 0x00, 0x00, 0x00, 0x00, 0x00, 0x00, 0x00, 0x00, 0x00, 0x3E, 0x00, 
  0x00, 0x7C, 0x00, 0x00, 0x00, 0x00, 0x00, 0x00, 0x00, 0x00, 0x00, 0x00, 
  0x00, 0x00, 0x00, 0x00, 0x00, 0x00, 0x00, 0x00, 0x00, 0x00, 0x00, 0x00, 
  0x00, 0x00, 0x00, 0x00, 0x00, 0x00, 0x0F, 0x00, 0x40, 0xF0, 0x00, 0x00, 
  0x00, 0x00, 0x00, 0x00, 0x00, 0x00, 0x00, 0x00, 0x00, 0x00, 0x00, 0x00, 
  0x00, 0x00, 0x00, 0x00, 0x00, 0x00, 0x00, 0x00, 0x00, 0x00, 0x00, 0x00, 
  0x00, 0xC0, 0x07, 0x00, 0x01, 0xF0, 0x03, 0x00, 0x00, 0x00, 0x00, 0x00, 
  0x00, 0x00, 0x00, 0x00, 0x00, 0x00, 0x00, 0x00, 0x00, 0x00, 0x00, 0x00, 
  0x00, 0x00, 0x00, 0x00, 0x00, 0x00, 0x00, 0x00, 0x00, 0xE0, 0x83, 0x40, 
  0x00, 0xC0, 0x07, 0x00, 0x00, 0x00, 0x00, 0x00, 0x00, 0x00, 0x00, 0x00, 
  0x00, 0x00, 0x00, 0x00, 0x00, 0x00, 0x00, 0x00, 0x00, 0x00, 0x00, 0x00, 
  0x00, 0x00, 0x00, 0x00, 0x00, 0xF8, 0x00, 0x84, 0x28, 0x01, 0x1F, 0x00, 
  0x00, 0x00, 0x00, 0x00, 0x00, 0x00, 0x00, 0x00, 0x00, 0x00, 0x00, 0x00, 
  0x00, 0x00, 0x00, 0x00, 0x00, 0x00, 0x00, 0x00, 0x00, 0x00, 0x00, 0x00, 
  0x00, 0x3C, 0x10, 0x00, 0x00, 0x00, 0x3E, 0x00, 0x00, 0x00, 0x00, 0x00, 
  0x00, 0x00, 0x00, 0x00, 0x00, 0x00, 0x00, 0x00, 0x00, 0x00, 0x00, 0x00, 
  0x00, 0x00, 0x00, 0x00, 0x00, 0x00, 0x00, 0x00, 0x00, 0x9F, 0x00, 0x01, 
  0x80, 0x14, 0xF8, 0x00, 0x00, 0x00, 0x00, 0x00, 0x00, 0x00, 0x00, 0x00, 
  0x00, 0x00, 0x00, 0x00, 0x00, 0x00, 0x00, 0x00, 0x00, 0x00, 0x00, 0x00, 
  0x00, 0x00, 0x00, 0x00, 0x80, 0x0F, 0x80, 0x00, 0x00, 0x00, 0xF0, 0x01, 
  0x00, 0x00, 0x00, 0x00, 0x00, 0x00, 0x00, 0x00, 0x00, 0x00, 0x00, 0x00, 
  0x00, 0x00, 0x00, 0x00, 0x00, 0x00, 0x00, 0x00, 0x00, 0x00, 0x00, 0x00, 
  0xC0, 0x07, 0x08, 0x00, 0x01, 0x00, 0xE0, 0x03, 0x00, 0x00, 0x00, 0x00, 
  0x00, 0x00, 0x00, 0x00, 0x00, 0x00, 0x00, 0x00, 0x00, 0x00, 0x00, 0x00, 
  0x00, 0x00, 0x00, 0x00, 0x00, 0x00, 0x00, 0x00, 0xF0, 0x01, 0x00, 0x10, 
  0x08, 0x00, 0x81, 0x0F, 0x00, 0x00, 0x00, 0x00, 0x00, 0x00, 0x00, 0x00, 
  0x00, 0x00, 0x00, 0x00, 0x00, 0x00, 0x00, 0x00, 0x00, 0x00, 0x00, 0x00, 
  0x00, 0x00, 0x00, 0x00, 0x78, 0x00, 0x01, 0x40, 0x00, 0x00, 0x00, 0x1F, 
  0x00, 0x00, 0x00, 0x00, 0x00, 0x00, 0x00, 0x00, 0x00, 0x00, 0x00, 0x00, 
  0x00, 0x00, 0x00, 0x00, 0x00, 0x00, 0x00, 0x00, 0x00, 0x00, 0x00, 0x00, 
  0x7E, 0x02, 0x20, 0x08, 0x10, 0x82, 0x00, 0x3C, 0x00, 0x00, 0x00, 0x00, 
  0x00, 0x00, 0x00, 0x00, 0x00, 0x00, 0x00, 0x00, 0x00, 0x00, 0x00, 0x00, 
  0x00, 0x00, 0x00, 0x00, 0x00, 0x00, 0x00, 0x00, 0x1F, 0x10, 0x10, 0x04, 
  0x04, 0x02, 0x08, 0xF4, 0x00, 0x00, 0x00, 0x00, 0x00, 0x00, 0x00, 0x00, 
  0x00, 0x00, 0x00, 0x00, 0x00, 0x00, 0x00, 0x00, 0x00, 0x00, 0x00, 0x00, 
  0x00, 0x00, 0x00, 0x80, 0x07, 0x80, 0x00, 0x00, 0x00, 0x40, 0x20, 0xE0, 
  0x01, 0x00, 0x00, 0x00, 0x00, 0x00, 0x00, 0x00, 0x00, 0x00, 0x00, 0x00, 
  0x00, 0x00, 0x00, 0x00, 0x00, 0x00, 0x00, 0x00, 0x00, 0x00, 0x00, 0xC0, 
  0x13, 0x00, 0x08, 0x21, 0x08, 0x02, 0x28, 0xE0, 0x07, 0x00, 0x00, 0x00, 
  0x00, 0x00, 0x00, 0x00, 0x00, 0x00, 0x00, 0x00, 0x00, 0x00, 0x00, 0x00, 
  0x00, 0x00, 0x00, 0x00, 0x00, 0x00, 0x00, 0xF0, 0x00, 0x08, 0x00, 0x00, 
  0x01, 0x00, 0x00, 0x00, 0x0F, 0x00, 0x00, 0x00, 0x00, 0x00, 0x00, 0x00, 
  0x00, 0x00, 0x00, 0x00, 0x00, 0x00, 0x00, 0x00, 0x00, 0x00, 0x00, 0x00, 
  0x00, 0x00, 0x00, 0x7C, 0x00, 0x00, 0x00, 0x00, 0x00, 0x20, 0x00, 0x04, 
  0x3E, 0x00, 0x00, 0x00, 0x00, 0x00, 0x00, 0x00, 0x00, 0x00, 0x00, 0x00, 
  0x00, 0x00, 0x00, 0x00, 0x00, 0x00, 0x00, 0x00, 0x00, 0x00, 0x00, 0x3E, 
  0x04, 0x20, 0x20, 0x02, 0x40, 0x08, 0x00, 0x10, 0x7C, 0x00, 0x00, 0x00, 
  0x00, 0x00, 0x00, 0x00, 0x00, 0x00, 0x00, 0x00, 0x00, 0x00, 0x00, 0x00, 
  0x00, 0x00, 0x00, 0x00, 0x00, 0x00, 0x00, 0x1F, 0x40, 0x02, 0x02, 0x80, 
  0x00, 0x00, 0x00, 0x04, 0xF8, 0x00, 0x00, 0x00, 0x00, 0x00, 0x00, 0x00, 
  0x00, 0x00, 0x00, 0x00, 0x00, 0x00, 0x00, 0x00, 0x00, 0x00, 0x00, 0x00, 
  0x00, 0x00, 0xC0, 0x87, 0x10, 0x04, 0x04, 0x10, 0x40, 0x20, 0x81, 0x00, 
  0xE0, 0x03, 0x00, 0x00, 0x00, 0x00, 0x00, 0x00, 0x00, 0x00, 0x00, 0x00, 
  0x00, 0x00, 0x00, 0x00, 0x00, 0x00, 0x00, 0x00, 0x00, 0x00, 0xE0, 0x01, 
  0x02, 0x00, 0x00, 0x02, 0x04, 0x00, 0x40, 0x00, 0xC2, 0x07, 0x00, 0x00, 
  0x00, 0x00, 0x00, 0x00, 0x00, 0x00, 0x00, 0x00, 0x00, 0x00, 0x00, 0x00, 
  0x00, 0x00, 0x00, 0x00, 0x00, 0x00, 0xF8, 0x01, 0x00, 0x40, 0x40, 0x00, 
  0x02, 0x02, 0x02, 0x40, 0x00, 0x0F, 0x00, 0x00, 0x00, 0x00, 0x00, 0x00, 
  0x00, 0x00, 0x00, 0x00, 0x00, 0x00, 0x00, 0x00, 0x00, 0x00, 0x00, 0x00, 
  0x00, 0x00, 0x7C, 0x00, 0x02, 0x00, 0x00, 0x40, 0x00, 0x10, 0x00, 0x84, 
  0x00, 0x3E, 0x00, 0x00, 0x00, 0x00, 0x00, 0x00, 0x00, 0x00, 0x00, 0x00, 
  0x00, 0x00, 0x00, 0x00, 0x00, 0x00, 0x00, 0x00, 0x00, 0x00, 0x1E, 0x04, 
  0x00, 0x40, 0x04, 0x00, 0x10, 0x00, 0x04, 0x00, 0x10, 0x78, 0x00, 0x00, 
  0x00, 0x00, 0x00, 0x00, 0x00, 0x00, 0x00, 0x00, 0x00, 0x00, 0x00, 0x00, 
  0x00, 0x00, 0x00, 0x00, 0x00, 0x80, 0x0F, 0x48, 0x60, 0x08, 0x10, 0x02, 
  0x00, 0x01, 0x08, 0x00, 0x00, 0xE8, 0x01, 0x00, 0x00, 0x00, 0x00, 0x00, 
  0x00, 0x00, 0x00, 0x00, 0x00, 0x00, 0x00, 0x00, 0x00, 0x00, 0x00, 0x00, 
  0x00, 0xC0, 0x07, 0x00, 0x00, 0x01, 0x80, 0x04, 0x08, 0x20, 0x40, 0x40, 
  0x04, 0xE0, 0x03, 0x00, 0x00, 0x00, 0x00, 0x00, 0x00, 0x00, 0x00, 0x00, 
  0x00, 0x00, 0x00, 0x00, 0x00, 0x00, 0x00, 0x00, 0x00, 0xE0, 0x23, 0x20, 
  0x08, 0x20, 0x02, 0x10, 0x20, 0x00, 0x10, 0x01, 0x40, 0xC0, 0x0F, 0x00, 
  0x00, 0x00, 0x00, 0x00, 0x00, 0x00, 0x00, 0x00, 0x00, 0x00, 0x00, 0x00, 
  0x00, 0x00, 0x00, 0x00, 0x00, 0xF8, 0x00, 0x00, 0x00, 0x00, 0x00, 0x00, 
  0x40, 0x40, 0x00, 0x08, 0x20, 0x00, 0x1F, 0x00, 0x00, 0x00, 0x00, 0x00, 
  0x00, 0x00, 0x00, 0x00, 0x00, 0x00, 0x00, 0x00, 0x00, 0x00, 0x00, 0x00, 
  0x00, 0x3E, 0x00, 0x00, 0x10, 0x00, 0x00, 0x08, 0x00, 0x08, 0x00, 0x40, 
  0x00, 0x08, 0x3C, 0x00, 0x00, 0x00, 0x00, 0x00, 0x00, 0x00, 0x00, 0x00, 
  0x00, 0x00, 0x00, 0x00, 0x00, 0x00, 0x00, 0x00, 0x00, 0x1E, 0x10, 0x01, 
  0x00, 0x88, 0x21, 0x00, 0x02, 0x01, 0x01, 0x00, 0x02, 0x02, 0xF8, 0x00, 
  0x00, 0x00, 0x00, 0x00, 0x00, 0x00, 0x00, 0x00, 0x00, 0x00, 0x00, 0x00, 
  0x00, 0x00, 0x00, 0x00, 0x80, 0x07, 0x00, 0x02, 0x01, 0x00, 0x00, 0x40, 
  0x00, 0x00, 0x40, 0x00, 0x00, 0x00, 0xF0, 0x01, 0x00, 0x00, 0x00, 0x00, 
  0x00, 0x00, 0x00, 0x00, 0x00, 0x00, 0x00, 0x00, 0x00, 0x00, 0x00, 0x00, 
  0xC0, 0x2B, 0x20, 0x80, 0x08, 0x02, 0x80, 0x20, 0x02, 0x80, 0x20, 0x80, 
  0x02, 0x80, 0xC0, 0x03, 0x00, 0x00, 0x00, 0x00, 0x00, 0x00, 0x00, 0x00, 
  0x00, 0x00, 0x00, 0x00, 0x00, 0x00, 0x00, 0x00, 0xF0, 0x01, 0x08, 0x40, 
  0x40, 0x10, 0x08, 0x02, 0x20, 0x08, 0x01, 0x01, 0x10, 0x00, 0x82, 0x0F, 
  0x00, 0x00, 0x00, 0x00, 0x00, 0x00, 0x00, 0x00, 0x00, 0x00, 0x00, 0x00, 
  0x00, 0x00, 0x00, 0x00, 0x78, 0x00, 0x00, 0x01, 0x00, 0x00, 0x00, 0x00, 
  0x40, 0x00, 0x00, 0x08, 0x80, 0x08, 0x00, 0x1E, 0x00, 0x00, 0x00, 0x00, 
  0x00, 0x00, 0x00, 0x00, 0x00, 0x00, 0x00, 0x00, 0x00, 0x00, 0x00, 0x00, 
  0xBE, 0x00, 0x10, 0x00, 0x20, 0x80, 0x01, 0x02, 0x04, 0x02, 0x02, 0x00, 
  0x02, 0x02, 0x04, 0x7C, 0x00, 0x00, 0x00, 0x00, 0x00, 0x00, 0x00, 0x00, 
  0x00, 0x00, 0x00, 0x00, 0x00, 0x00, 0x00, 0x00, 0x0F, 0x40, 0x80, 0x00, 
  0x01, 0x04, 0x20, 0x00, 0x00, 0x20, 0x00, 0x10, 0x00, 0x10, 0x80, 0xF8, 
  0x00, 0x00, 0x00, 0x00, 0x00, 0x00, 0x00, 0x00, 0x00, 0x00, 0x00, 0x00, 
  0x00, 0x00, 0x00, 0x80, 0x0F, 0x88, 0x01, 0x28, 0x00, 0x08, 0x10, 0x00, 
  0x00, 0x10, 0x80, 0x04, 0x00, 0x20, 0x00, 0xE0, 0x03, 0x00, 0x00, 0x00, 
  0x00, 0x00, 0x00, 0x00, 0x00, 0x00, 0x00, 0x00, 0x00, 0x00, 0x00, 0xE0, 
  0x01, 0x00, 0x00, 0x00, 0x10, 0x00, 0x00, 0x10, 0x10, 0x00, 0x10, 0x00, 
  0x11, 0x00, 0x08, 0xC0, 0x07, 0x00, 0x00, 0x00, 0x00, 0x00, 0x00, 0x00, 
  0x00, 0x00, 0x00, 0x00, 0x00, 0x00, 0x00, 0xF0, 0x08, 0x00, 0x14, 0x00, 
  0x00, 0x04, 0x00, 0xC0, 0x07, 0x00, 0x01, 0x20, 0x00, 0x80, 0x00, 0x80, 
  0x0F, 0x00, 0x00, 0x00, 0x00, 0x00, 0x00, 0x00, 0x00, 0x00, 0x00, 0x00, 
  0x00, 0x00, 0x00, 0x7C, 0x00, 0x08, 0x00, 0x81, 0x24, 0x00, 0xE0, 0xFF, 
  0xFF, 0x0B, 0x10, 0x40, 0x40, 0x02, 0x40, 0x01, 0x3E, 0x00, 0x00, 0x00, 
  0x00, 0x00, 0x00, 0x00, 0x00, 0x00, 0x00, 0x00, 0x00, 0x00, 0x00, 0x1E, 
  0x80, 0x00, 0x00, 0x00, 0x00, 0x81, 0xFF, 0xFF, 0xFF, 0x7F, 0x20, 0x01, 
  0x08, 0x10, 0x08, 0x00, 0x78, 0x00, 0x00, 0x00, 0x00, 0x00, 0x00, 0x00, 
  0x00, 0x00, 0x00, 0x00, 0x00, 0x00, 0x80, 0x0F, 0x01, 0x10, 0x00, 0x10, 
  0x00, 0xE0, 0xFF, 0xFF, 0xF7, 0xFF, 0x07, 0x00, 0x00, 0x00, 0x00, 0x10, 
  0xF0, 0x00, 0x00, 0x00, 0x00, 0x00, 0x00, 0x00, 0x00, 0x00, 0x00, 0x00, 
  0x00, 0x00, 0xC0, 0x27, 0x01, 0x04, 0x00, 0x00, 0x00, 0xFC, 0xBF, 0x08, 
  0x80, 0xFE, 0x3F, 0x20, 0x01, 0x84, 0x01, 0x40, 0xE1, 0x03, 0x00, 0x00, 
  0x00, 0x00, 0x00, 0x00, 0x00, 0x00, 0x00, 0x00, 0x00, 0x00, 0xE0, 0x01, 
  0x00, 0x02, 0x81, 0x24, 0x82, 0xFF, 0x03, 0x00, 0x00, 0xC0, 0xFF, 0x01, 
  0x20, 0x00, 0x20, 0x08, 0x88, 0x0F, 0x00, 0x00, 0x00, 0x00, 0x00, 0x00, 
  0x00, 0x00, 0x00, 0x00, 0x00, 0x00, 0xF8, 0x10, 0x40, 0x00, 0x02, 0x00, 
  0xE0, 0x3F, 0x00, 0x80, 0x01, 0x00, 0xFC, 0x07, 0x10, 0x00, 0x10, 0x04, 
  0x00, 0x1F, 0x00, 0x00, 0x00, 0x00, 0x00, 0x00, 0x00, 0x00, 0x00, 0x00, 
  0x00, 0x00, 0x3C, 0x00, 0x20, 0x40, 0x40, 0x00, 0xFC, 0x07, 0x00, 0x01, 
  0x08, 0x01, 0xE0, 0x1F, 0x00, 0x08, 0x00, 0x00, 0x00, 0x3C, 0x00, 0x00, 
  0x00, 0x00, 0x00, 0x00, 0x00, 0x00, 0x00, 0x00, 0x00, 0x00, 0x1F, 0x10, 
  0x02, 0x28, 0x80, 0x00, 0xFE, 0x08, 0x80, 0x80, 0x00, 0x40, 0xA1, 0x7F, 
  0x00, 0x00, 0x08, 0x21, 0x14, 0xF8, 0x00, 0x00, 0x00, 0x00, 0x00, 0x00, 
  0x00, 0x00, 0x00, 0x00, 0x00, 0x80, 0x47, 0x00, 0x00, 0x00, 0x00, 0xA0, 
  0x3F, 0x01, 0x10, 0x00, 0x04, 0x02, 0x00, 0xFC, 0x41, 0x10, 0x00, 0x00, 
  0x00, 0xF0, 0x01, 0x00, 0x00, 0x00, 0x00, 0x00, 0x00, 0x00, 0x00, 0x00, 
  0x00, 0xC0, 0x07, 0x01, 0x20, 0x00, 0x00, 0xC1, 0x0F, 0x00, 0x02, 0x02, 
  0x10, 0x81, 0x00, 0xF0, 0x47, 0x08, 0x00, 0x00, 0x00, 0xE4, 0x03, 0x00, 
  0x00, 0x00, 0x00, 0x00, 0x00, 0x00, 0x00, 0x00, 0x00, 0xF0, 0x01, 0x20, 
  0x00, 0x00, 0x04, 0xF0, 0x0B, 0x40, 0x00, 0x04, 0x00, 0x00, 0x02, 0xC0, 
  0x0F, 0x00, 0x10, 0x02, 0x00, 0x00, 0x0F, 0x00, 0x00, 0x00, 0x00, 0x00, 
  0x00, 0x00, 0x00, 0x00, 0x00, 0xF8, 0x20, 0x00, 0x08, 0x01, 0x14, 0xF8, 
  0x10, 0x00, 0x04, 0x10, 0x08, 0x00, 0x80, 0x81, 0x1F, 0x20, 0x02, 0x80, 
  0x00, 0x00, 0x1F, 0x00, 0x00, 0x00, 0x00, 0x00, 0x00, 0x00, 0x00, 0x00, 
  0x00, 0x3E, 0x00, 0x00, 0x20, 0x40, 0x00, 0x7E, 0x08, 0x40, 0x80, 0x00, 
  0x01, 0x00, 0x10, 0x00, 0x3E, 0x40, 0x04, 0x10, 0x81, 0x04, 0x7C, 0x00, 
  0x00, 0x00, 0x00, 0x00, 0x00, 0x00, 0x00, 0x00, 0x00, 0x0F, 0x00, 0x48, 
  0x00, 0x40, 0x80, 0x1F, 0x00, 0x04, 0x00, 0x08, 0x00, 0x00, 0x04, 0x28, 
  0xF8, 0x01, 0x00, 0x04, 0x02, 0x00, 0xF8, 0x00, 0x00, 0x00, 0x00, 0x00, 
  0x00, 0x00, 0x00, 0x00, 0x80, 0x07, 0x01, 0x01, 0x04, 0x02, 0x80, 0x4F, 
  0x00, 0x02, 0x08, 0x00, 0x80, 0x14, 0x00, 0x00, 0xF8, 0x01, 0x40, 0x00, 
  0x40, 0x40, 0xE0, 0x01, 0x00, 0x00, 0x00, 0x00, 0x00, 0x00, 0x00, 0x00, 
  0xE0, 0x13, 0x00, 0x10, 0x20, 0x00, 0xC0, 0x07, 0x20, 0x00, 0x08, 0x40, 
  0x40, 0x00, 0x00, 0x02, 0xC0, 0x27, 0x00, 0x00, 0x00, 0x08, 0xE0, 0x07, 
  0x00, 0x00, 0x00, 0x00, 0x00, 0x00, 0x00, 0x00, 0xF0, 0x00, 0x10, 0x80, 
  0x00, 0x60, 0xF0, 0x01, 0x40, 0x20, 0x01, 0x20, 0x00, 0x14, 0x28, 0x00, 
  0xC1, 0x07, 0x40, 0x02, 0x20, 0x00, 0x80, 0x0F, 0x00, 0x00, 0x00, 0x00, 
  0x00, 0x00, 0x00, 0x00, 0x7C, 0x00, 0x20, 0x00, 0x02, 0x01, 0xF4, 0x02, 
  0x01, 0x08, 0x00, 0x02, 0x04, 0x00, 0x00, 0x60, 0x80, 0x0F, 0x08, 0x20, 
  0x08, 0x01, 0x00, 0x3C, 0x00, 0x00, 0x00, 0x00, 0x00, 0x00, 0x00, 0x00, 
  0x1E, 0x04, 0x02, 0x02, 0x10, 0x00, 0x7C, 0x80, 0x00, 0x00, 0x40, 0x00, 
  0x02, 0x00, 0x01, 0x00, 0x08, 0x3E, 0x01, 0x40, 0x00, 0x40, 0x01, 0x7C, 
  0x00, 0x00, 0x00, 0x00, 0x00, 0x00, 0x00, 0x00, 0x0F, 0x40, 0x00, 0x00, 
  0x04, 0x01, 0x7E, 0x80, 0x01, 0x10, 0x00, 0x02, 0x20, 0x82, 0x40, 0x04, 
  0x00, 0x7C, 0x40, 0x04, 0x10, 0x00, 0x01, 0xF8, 0x00, 0x00, 0x00, 0x00, 
  0x00, 0x00, 0x00, 0xC0, 0x47, 0x20, 0x08, 0x02, 0x00, 0x00, 0x1E, 0x00, 
  0x00, 0x80, 0x40, 0x00, 0x00, 0x00, 0x00, 0x00, 0x24, 0x78, 0x00, 0x00, 
  0x80, 0x40, 0x00, 0xC1, 0x03, 0x00, 0x00, 0x00, 0x00, 0x00, 0x00, 0xE0, 
  0x09, 0x02, 0x80, 0x20, 0x00, 0x80, 0x0F, 0x02, 0x40, 0x00, 0x04, 0x00, 
  0x08, 0x01, 0x00, 0x10, 0x00, 0xF2, 0x00, 0x00, 0x00, 0x04, 0x40, 0xA0, 
  0x07, 0x00, 0x00, 0x00, 0x00, 0x00, 0x00, 0xF8, 0x00, 0x00, 0x00, 0x40, 
  0x40, 0xA0, 0x07, 0x04, 0x20, 0x01, 0x02, 0x20, 0x00, 0x20, 0x84, 0x00, 
  0x00, 0xE0, 0x89, 0x10, 0x01, 0x02, 0x20, 0x00, 0x1F, 0x00, 0x00, 0x00, 
  0x00, 0x00, 0x00, 0x3C, 0x10, 0x02, 0x21, 0x00, 0x00, 0xC0, 0x07, 0x40, 
  0x02, 0x80, 0x00, 0xF4, 0x2F, 0x00, 0x00, 0x08, 0x08, 0xD0, 0x43, 0x00, 
  0x00, 0x00, 0x02, 0x28, 0x3C, 0x00, 0x00, 0x00, 0x00, 0x00, 0x00, 0x1E, 
  0x00, 0x00, 0x00, 0x08, 0x42, 0xE0, 0x11, 0x00, 0x00, 0x00, 0xE0, 0xFF, 
  0xFF, 0x17, 0x08, 0x00, 0x01, 0xC0, 0x03, 0x08, 0x04, 0x80, 0x00, 0x00, 
  0xF8, 0x00, 0x00, 0x00, 0x00, 0x00, 0x80, 0x8F, 0x80, 0x40, 0x00, 0x00, 
  0x81, 0xF4, 0x00, 0x00, 0x20, 0x02, 0xFC, 0xFF, 0xFF, 0x3F, 0x40, 0x00, 
  0x00, 0x00, 0x0F, 0x04, 0x10, 0x00, 0x00, 0x00, 0xF1, 0x01, 0x00, 0x00, 
  0x00, 0x00, 0xC0, 0x03, 0x02, 0x20, 0x02, 0x10, 0x00, 0x70, 0x00, 0x04, 
  0x00, 0x04, 0xFF, 0xFF, 0xFF, 0xFF, 0x01, 0x84, 0x80, 0x82, 0x1F, 0x40, 
  0x80, 0x08, 0x20, 0x00, 0xC0, 0x03, 0x00, 0x00, 0x00, 0x00, 0xF0, 0x41, 
  0x00, 0x08, 0x80, 0x04, 0x00, 0x7A, 0x80, 0x10, 0x08, 0xC0, 0xFF, 0x09, 
  0x48, 0xFF, 0x07, 0x00, 0x00, 0x00, 0x1E, 0x10, 0x02, 0x02, 0x08, 0x01, 
  0x80, 0x0F, 0x00, 0x00, 0x00, 0x00, 0x78, 0x00, 0x02, 0x00, 0x10, 0x02, 
  0x00, 0x7C, 0x01, 0x04, 0x00, 0xF8, 0x3F, 0x00, 0x00, 0xF8, 0x1F, 0x40, 
  0x80, 0x01, 0x5C, 0x00, 0x00, 0x10, 0x20, 0x40, 0x00, 0x1E, 0x00, 0x00, 
  0x00, 0x00, 0x3E, 0x00, 0x10, 0x10, 0x02, 0x00, 0x00, 0x1C, 0x02, 0x00, 
  0x80, 0xF8, 0x03, 0x80, 0x00, 0x80, 0x7F, 0x00, 0x06, 0x20, 0x3C, 0x01, 
  0x00, 0x20, 0x00, 0x80, 0x00, 0x7E, 0x00, 0x00, 0x00, 0x00, 0x9F, 0x08, 
  0x40, 0x00, 0x00, 0x80, 0x18, 0x1E, 0x40, 0x20, 0x34, 0xFE, 0x01, 0x04, 
  0x80, 0x02, 0x7F, 0x15, 0x00, 0x40, 0x78, 0x00, 0x21, 0x00, 0x04, 0x02, 
  0x28, 0xF0, 0x00, 0x00, 0x00, 0xC0, 0x07, 0x00, 0x00, 0x11, 0x00, 0x80, 
  0x28, 0x0F, 0x00, 0x08, 0xFE, 0x3F, 0x04, 0x78, 0x00, 0x01, 0xFA, 0x3F, 
  0x80, 0x00, 0xF8, 0x80, 0x00, 0x00, 0x01, 0x01, 0x01, 0xE0, 0x01, 0x00, 
  0x00, 0xE0, 0x01, 0x06, 0x02, 0x00, 0x14, 0x00, 0x00, 0x47, 0x20, 0x01, 
  0xFF, 0x1F, 0x10, 0xFE, 0x01, 0x48, 0xF0, 0x7F, 0x00, 0x40, 0xF0, 0x00, 
  0x80, 0x01, 0x48, 0x00, 0x00, 0xC8, 0x07, 0x00, 0x00, 0xF0, 0x10, 0x80, 
  0x10, 0x00, 0x00, 0x01, 0x80, 0x07, 0x08, 0x80, 0xFF, 0x07, 0x00, 0xFE, 
  0x05, 0x00, 0xC8, 0x7F, 0x08, 0x08, 0xE0, 0x00, 0x00, 0x10, 0x00, 0x00, 
  0x80, 0x80, 0x0F, 0x00, 0x00, 0x7C, 0x08, 0x00, 0x00, 0x02, 0x00, 0x08, 
  0x80, 0x07, 0x00, 0x80, 0xFF, 0x43, 0x00, 0xFF, 0x5F, 0x00, 0xE0, 0xFF, 
  0x20, 0x00, 0xC1, 0x43, 0x08, 0x00, 0x00, 0x20, 0x10, 0x00, 0x1E, 0x00, 
  0x00, 0x3E, 0x04, 0x80, 0x80, 0x80, 0x80, 0x00, 0xC1, 0x23, 0x10, 0x80, 
  0xFF, 0x03, 0x80, 0xFF, 0xFF, 0x03, 0xE0, 0xFF, 0x00, 0x01, 0xC0, 0x03, 
  0x02, 0x80, 0x21, 0x00, 0x00, 0x01, 0x7C, 0x00, 0x00, 0x0F, 0x01, 0x00, 
  0x04, 0x10, 0x02, 0x10, 0xC0, 0x01, 0x80, 0xA0, 0xFF, 0x01, 0xF2, 0xFF, 
  0xFF, 0x1F, 0xE0, 0xFF, 0x09, 0x20, 0x81, 0x03, 0x20, 0x04, 0x00, 0x48, 
  0x08, 0x00, 0xF0, 0x00, 0xC0, 0x47, 0x00, 0x01, 0x08, 0x02, 0x01, 0x04, 
  0xE0, 0x01, 0x01, 0x86, 0xFF, 0x49, 0xFC, 0xFF, 0xFF, 0x7F, 0xC0, 0xFF, 
  0x40, 0x10, 0x80, 0x27, 0x10, 0x08, 0x00, 0x00, 0x20, 0x20, 0xE2, 0x03, 
  0xE0, 0x01, 0x80, 0x08, 0x00, 0x00, 0x20, 0x00, 0xE2, 0x02, 0x00, 0x00, 
  0xFF, 0x01, 0xFF, 0xFF, 0x83, 0xFF, 0xC1, 0xFF, 0x00, 0x00, 0xA0, 0x07, 
  0x00, 0x00, 0x10, 0x04, 0x00, 0x04, 0x80, 0x07, 0xF8, 0x01, 0x18, 0x20, 
  0x00, 0x00, 0x80, 0x00, 0xF0, 0x80, 0x40, 0x80, 0xFF, 0x81, 0x3F, 0xFE, 
  0x43, 0xFC, 0x83, 0xFF, 0x01, 0x00, 0x00, 0x07, 0x88, 0x10, 0x00, 0x20, 
  0x04, 0x10, 0x02, 0x1F, 0x3C, 0x00, 0x00, 0x00, 0x08, 0x04, 0x00, 0x60, 
  0x70, 0x12, 0x00, 0x80, 0xFF, 0xC0, 0x1F, 0xFE, 0x00, 0xE0, 0x87, 0xFF, 
  0x07, 0x10, 0x08, 0x4F, 0x00, 0x00, 0x08, 0x01, 0x02, 0x00, 0x00, 0x3C, 
  0x3E, 0x00, 0x00, 0x04, 0x04, 0x10, 0x00, 0x01, 0x74, 0x00, 0x02, 0xC0, 
  0x07, 0xF0, 0x17, 0xB8, 0x04, 0xE0, 0x0F, 0xC8, 0x13, 0x20, 0x04, 0x0E, 
  0x00, 0x00, 0x00, 0x00, 0x80, 0x80, 0x80, 0x7C, 0x0F, 0x28, 0x00, 0x10, 
  0x40, 0x80, 0x08, 0x00, 0x78, 0x00, 0x04, 0xC4, 0x03, 0xF8, 0x01, 0x00, 
  0x00, 0x08, 0x1F, 0x80, 0x87, 0x01, 0x40, 0x1E, 0x20, 0x04, 0x10, 0x82, 
  0x00, 0x02, 0x20, 0xF0, 0x0E, 0x00, 0x00, 0x04, 0x00, 0x02, 0x02, 0x01, 
  0x38, 0x84, 0x10, 0xF0, 0x83, 0xF8, 0x04, 0x00, 0x01, 0x04, 0x3E, 0x80, 
  0x0F, 0x00, 0x10, 0x1C, 0x02, 0x40, 0x04, 0x00, 0x80, 0x00, 0x08, 0x70, 
  0x0E, 0x20, 0x81, 0x00, 0x10, 0x00, 0x10, 0x00, 0x38, 0x00, 0x00, 0xF0, 
  0x01, 0x7E, 0x00, 0xF4, 0x1F, 0x00, 0x7E, 0x40, 0x0F, 0x08, 0x00, 0x1C, 
  0x08, 0x20, 0x02, 0x00, 0x00, 0x02, 0x00, 0x70, 0x0C, 0x00, 0x42, 0x00, 
  0x01, 0x00, 0x20, 0x80, 0x3C, 0x00, 0x08, 0xF0, 0x00, 0x9E, 0x80, 0xFE, 
  0xFF, 0x00, 0xF8, 0x08, 0x1F, 0x80, 0x01, 0x3C, 0x40, 0x02, 0x00, 0x14, 
  0x01, 0x10, 0x20, 0x31, 0x3C, 0x02, 0x00, 0x40, 0x00, 0x21, 0x00, 0x10, 
  0x9E, 0x08, 0x00, 0xFA, 0x08, 0x1F, 0x80, 0xFF, 0xFF, 0x43, 0xF0, 0x01, 
  0x9E, 0x00, 0x00, 0x3C, 0x00, 0x00, 0x40, 0x00, 0x04, 0x40, 0x00, 0x38, 
  0x1C, 0x08, 0x04, 0x02, 0x00, 0x08, 0x20, 0x00, 0x1C, 0x00, 0x10, 0x78, 
  0x80, 0x0F, 0xE0, 0xFF, 0xFF, 0x57, 0xE0, 0x01, 0x3D, 0x00, 0x08, 0x38, 
  0x04, 0x80, 0x28, 0x00, 0x40, 0x40, 0x00, 0x38, 0x18, 0x00, 0x00, 0x80, 
  0x20, 0x00, 0x80, 0x00, 0x1E, 0x80, 0x00, 0x7C, 0xA4, 0x0F, 0xF1, 0x1F, 
  0xD8, 0xFF, 0xE5, 0x03, 0x3C, 0x20, 0x00, 0x38, 0x10, 0x00, 0x00, 0x01, 
  0x00, 0x20, 0x10, 0x38, 0xB8, 0x01, 0x20, 0x40, 0x08, 0x01, 0x00, 0x24, 
  0x1E, 0x00, 0x80, 0x3C, 0xC0, 0x03, 0xF8, 0x03, 0x80, 0xFF, 0xC3, 0x47, 
  0x78, 0x08, 0x01, 0x78, 0x00, 0x01, 0x00, 0x80, 0x04, 0x02, 0x00, 0x1C, 
  0x38, 0x40, 0x08, 0x01, 0x00, 0x40, 0x01, 0x00, 0x4E, 0x08, 0x02, 0x3C, 
  0xC0, 0xC3, 0xFF, 0x20, 0x00, 0xFE, 0x87, 0x07, 0x78, 0x00, 0x40, 0x78, 
  0x00, 0x08, 0x00, 0x10, 0x10, 0x00, 0x08, 0x1D, 0x30, 0x00, 0x00, 0x00, 
  0x20, 0x00, 0x00, 0x08, 0x0E, 0x02, 0x00, 0x7E, 0xE4, 0xE5, 0x7F, 0x00, 
  0x80, 0xFE, 0x47, 0x47, 0x78, 0x10, 0x00, 0x74, 0x80, 0x00, 0x00, 0x00, 
  0x00, 0x02, 0x20, 0x0C, 0x70, 0x40, 0x20, 0x00, 0x80, 0x40, 0x01, 0x00, 
  0x0E, 0x10, 0x02, 0x1E, 0xE1, 0xF1, 0x3F, 0x08, 0x00, 0xFE, 0x07, 0x0F, 
  0x7A, 0x80, 0x40, 0x70, 0x02, 0x10, 0x81, 0x08, 0x04, 0x00, 0x40, 0x0E, 
  0x70, 0x08, 0x00, 0x00, 0x00, 0x04, 0x60, 0x81, 0x27, 0x20, 0x10, 0x1E, 
  0xF0, 0xF0, 0x3F, 0x40, 0x01, 0xFE, 0x1F, 0x1F, 0xF0, 0x00, 0x04, 0x70, 
  0x01, 0x04, 0x42, 0x20, 0x00, 0x80, 0x00, 0x0E, 0x60, 0x02, 0x02, 0x28, 
  0x01, 0x02, 0x00, 0x00, 0x0F, 0x00, 0x40, 0x0E, 0xF0, 0xF0, 0x3F, 0x00, 
  0x04, 0xFE, 0x07, 0x1E, 0xF0, 0x01, 0x02, 0x70, 0x40, 0x00, 0x00, 0x00, 
  0x40, 0x10, 0x02, 0x06, 0xE0, 0x00, 0x20, 0x00, 0x00, 0x80, 0x01, 0x00, 
  0x07, 0x10, 0x01, 0x1F, 0xF0, 0xF8, 0x7F, 0xC0, 0x03, 0xFC, 0x07, 0x1E, 
  0xF2, 0x14, 0x00, 0xE4, 0x80, 0x20, 0x40, 0x10, 0x00, 0x00, 0x00, 0x07, 
  0xE0, 0x04, 0x40, 0x81, 0x04, 0x00, 0x00, 0x28, 0x4F, 0x00, 0x00, 0x0F, 
  0x78, 0xF0, 0x7F, 0xF0, 0x1F, 0xFE, 0x07, 0x1E, 0xE0, 0x01, 0x10, 0xF0, 
  0x00, 0x40, 0x00, 0x80, 0x42, 0x20, 0x00, 0x07, 0xC0, 0x80, 0x01, 0x00, 
  0x10, 0x00, 0x00, 0x00, 0x07, 0x00, 0x00, 0x8E, 0x79, 0xF1, 0x3F, 0xFE, 
  0x3F, 0xF8, 0x17, 0x9E, 0xE0, 0x00, 0x00, 0xE0, 0x00, 0x01, 0x04, 0x00, 
  0x81, 0x08, 0x81, 0x07, 0xC0, 0x01, 0x00, 0x10, 0x80, 0x08, 0x20, 0x00, 
  0x07, 0x21, 0x20, 0x0F, 0x78, 0xE0, 0x3F, 0xFC, 0x7F, 0xA0, 0x87, 0x3C, 
  0xF0, 0x01, 0x08, 0xE0, 0x04, 0x00, 0x00, 0x02, 0x00, 0x00, 0x08, 0x03, 
  0xC0, 0x81, 0x01, 0x00, 0x02, 0x00, 0x00, 0x01, 0x27, 0x00, 0x88, 0x0F, 
  0x7C, 0xE0, 0x1F, 0xFE, 0xFF, 0x04, 0x0F, 0x3C, 0xE8, 0x01, 0x20, 0xE2, 
  0x02, 0x01, 0x10, 0x00, 0x00, 0x10, 0x80, 0x03, 0x80, 0x03, 0x00, 0x24, 
  0x00, 0x12, 0x48, 0x80, 0x07, 0x00, 0x00, 0x07, 0x38, 0xE1, 0x43, 0xFF, 
  0xFF, 0x01, 0x07, 0x3C, 0xE0, 0x81, 0x40, 0xE4, 0x10, 0x00, 0x04, 0x02, 
  0x00, 0x80, 0xC0, 0x01, 0x80, 0x03, 0x40, 0x00, 0x00, 0x20, 0x00, 0x20, 
  0x07, 0x48, 0x00, 0x2F, 0x7C, 0xE0, 0x01, 0xFF, 0xFF, 0x00, 0x0F, 0x3C, 
  0xE0, 0x01, 0x00, 0xE0, 0x20, 0x80, 0x00, 0x20, 0x00, 0x00, 0xC4, 0x01, 
  0x80, 0x07, 0x20, 0x00, 0x21, 0x00, 0x04, 0x04, 0x07, 0x01, 0x84, 0x07, 
  0x38, 0xF0, 0x01, 0xFF, 0xFF, 0x81, 0x1E, 0x3C, 0xE0, 0x43, 0x02, 0xE0, 
  0x01, 0x20, 0x40, 0x40, 0x28, 0x01, 0xC0, 0x01, 0x00, 0x03, 0x00, 0x10, 
  0x00, 0x00, 0x02, 0x80, 0x07, 0x04, 0x88, 0x0F, 0x3A, 0xF0, 0x41, 0xFF, 
  0xFF, 0x01, 0x0F, 0x3E, 0xE1, 0x01, 0x00, 0xE8, 0x80, 0x00, 0x08, 0x00, 
  0x40, 0x00, 0xC4, 0x01, 0x00, 0x07, 0x20, 0x80, 0x80, 0x01, 0x08, 0x20, 
  0x07, 0x00, 0x01, 0x07, 0x7C, 0xF0, 0x00, 0xFF, 0xFF, 0x41, 0x0E, 0x3C, 
  0xE0, 0x01, 0x81, 0xE0, 0x00, 0x40, 0x00, 0x08, 0x00, 0x04, 0xE0, 0x00, 
  0x00, 0x87, 0x10, 0x00, 0x08, 0x00, 0x40, 0x01, 0x27, 0x20, 0x80, 0x87, 
  0x3C, 0xE0, 0x81, 0xFF, 0xFF, 0x05, 0x1F, 0x38, 0xC0, 0x25, 0x00, 0xE0, 
  0x08, 0x08, 0x80, 0x00, 0x06, 0x10, 0xE0, 0x00, 0x00, 0x07, 0x02, 0x01, 
  0x00, 0x10, 0x00, 0x80, 0x07, 0x08, 0x00, 0x0F, 0x38, 0xE1, 0x01, 0xFF, 
  0xFF, 0x01, 0x0F, 0x3F, 0xE0, 0x01, 0x08, 0xE0, 0x20, 0x00, 0x04, 0x10, 
  0x00, 0x80, 0x61, 0x00, 0x00, 0x0E, 0x08, 0x00, 0x02, 0x40, 0x40, 0x01, 
  0x07, 0x20, 0x24, 0x07, 0x78, 0xE0, 0x01, 0xFF, 0xFF, 0x00, 0x8F, 0x3F, 
  0xE0, 0x11, 0x00, 0xE0, 0x00, 0x21, 0x00, 0x04, 0x10, 0x02, 0x74, 0x00, 
  0x00, 0x8E, 0x00, 0x01, 0x20, 0x04, 0x01, 0x80, 0x07, 0x00, 0x00, 0x4F, 
  0x3C, 0xE1, 0x83, 0xFE, 0xFF, 0x80, 0xC7, 0xFF, 0xE8, 0x01, 0x24, 0xE1, 
  0x0A, 0x00, 0x02, 0x02, 0x00, 0x00, 0x70, 0x00, 0x00, 0x1C, 0x00, 0x60, 
  0x10, 0x04, 0x00, 0x00, 0x87, 0x00, 0x80, 0x0F, 0x78, 0xE0, 0x01, 0xFC, 
  0x7F, 0x81, 0xE7, 0xFF, 0xE0, 0x81, 0x00, 0xE2, 0x40, 0x10, 0x10, 0x00, 
  0x08, 0x00, 0x70, 0x00, 0x00, 0x1C, 0x80, 0x00, 0x00, 0x00, 0x10, 0x10, 
  0x07, 0x02, 0x00, 0x0F, 0x78, 0xC0, 0x07, 0xF8, 0x3F, 0x80, 0xE7, 0xFF, 
  0xE4, 0x00, 0x00, 0xE0, 0x00, 0x00, 0x80, 0x40, 0x00, 0x21, 0x38, 0x00, 
  0x00, 0x1C, 0x20, 0x00, 0x08, 0x11, 0x00, 0x40, 0x07, 0x00, 0x40, 0x0F, 
  0x78, 0xC0, 0x07, 0xF0, 0x0F, 0xC1, 0xE3, 0xFF, 0xF1, 0x81, 0x04, 0xF1, 
  0x00, 0x00, 0x00, 0x00, 0x10, 0x00, 0x38, 0x00, 0x00, 0x18, 0x01, 0x04, 
  0x00, 0x00, 0x04, 0x01, 0x0F, 0x42, 0x01, 0x1E, 0xF0, 0xA0, 0x87, 0x00, 
  0x05, 0xE0, 0xE3, 0xFF, 0xF0, 0x00, 0x01, 0x70, 0x28, 0x20, 0x01, 0x40, 
  0x00, 0x04, 0x18, 0x00, 0x00, 0x38, 0x00, 0x10, 0x00, 0x00, 0x10, 0x82, 
  0x17, 0x81, 0x02, 0x1E, 0xF8, 0x88, 0x0F, 0x08, 0x20, 0xE0, 0xC9, 0xFF, 
  0xF0, 0x00, 0x00, 0xE0, 0x00, 0x20, 0x00, 0x08, 0x00, 0x08, 0x1C, 0x00, 
  0x00, 0x38, 0x82, 0x00, 0x20, 0x02, 0x00, 0x00, 0x0E, 0x00, 0x80, 0x1E, 
  0xF0, 0x01, 0x1F, 0x00, 0x00, 0xF0, 0xC1, 0x7F, 0xF0, 0x08, 0x80, 0x70, 
  0x00, 0x02, 0x10, 0x02, 0x21, 0x40, 0x1C, 0x00, 0x00, 0x30, 0x00, 0x08, 
  0x02, 0x80, 0x04, 0x00, 0x0E, 0x00, 0x00, 0x1E, 0xF0, 0x05, 0x3E, 0x00, 
  0x0A, 0xF8, 0xA0, 0x3F, 0x7A, 0x02, 0x00, 0x70, 0x41, 0x08, 0x40, 0x20, 
  0x00, 0x10, 0x0C, 0x00, 0x00, 0x70, 0x00, 0x01, 0x04, 0x10, 0x01, 0x00, 
  0x0E, 0x00, 0x00, 0x3C, 0xE0, 0x3F, 0x7E, 0x88, 0x3F, 0x7C, 0x80, 0x1F, 
  0x78, 0x10, 0x80, 0x78, 0x00, 0x00, 0x04, 0x00, 0x08, 0x00, 0x0F, 0x00, 
  0x00, 0x70, 0x14, 0x00, 0x40, 0x02, 0x00, 0x10, 0x1E, 0x00, 0x00, 0x3E, 
  0xC1, 0x7F, 0xFC, 0xC1, 0x7F, 0x7F, 0xC4, 0x07, 0x78, 0x00, 0x02, 0x32, 
  0x80, 0x80, 0x08, 0x00, 0x40, 0x00, 0x0E, 0x00, 0x00, 0x70, 0x00, 0x80, 
  0x00, 0x00, 0x80, 0x04, 0x1E, 0x18, 0x14, 0x78, 0xC0, 0x7F, 0xF0, 0xE3, 
  0xFF, 0x1F, 0xC0, 0x87, 0x3C, 0x01, 0x04, 0x78, 0x02, 0x00, 0x00, 0x88, 
  0x00, 0x01, 0x0E, 0x00, 0x00, 0xE0, 0x14, 0x00, 0x00, 0x18, 0x01, 0x00, 
  0x1C, 0x00, 0x14, 0x78, 0xE0, 0x7F, 0xE0, 0xFF, 0xFF, 0x0F, 0xE0, 0x03, 
  0x7C, 0x00, 0x08, 0x78, 0x00, 0x10, 0x40, 0x00, 0x00, 0x00, 0x07, 0x00, 
  0x00, 0xE0, 0x00, 0x01, 0x81, 0x00, 0x00, 0x20, 0x3C, 0x28, 0x00, 0x78, 
  0xE4, 0xFF, 0xC8, 0xFF, 0xFF, 0x03, 0xF2, 0x81, 0x3E, 0x20, 0x00, 0x3C, 
  0x10, 0x00, 0x10, 0x10, 0x10, 0x10, 0x07, 0x00, 0x00, 0xC0, 0x00, 0x80, 
  0x00, 0x00, 0x40, 0x08, 0x1C, 0x00, 0x00, 0xF1, 0xE0, 0xFF, 0x40, 0xFF, 
  0xFF, 0x00, 0xF8, 0x00, 0x1E, 0x08, 0x01, 0x3C, 0x00, 0x00, 0x02, 0x00, 
  0x00, 0x02, 0x07, 0x00, 0x00, 0xC0, 0x01, 0x10, 0x08, 0x00, 0x20, 0x01, 
  0x3D, 0x01, 0x00, 0xF0, 0xC1, 0x7F, 0x00, 0xF4, 0x7F, 0x22, 0xFC, 0x08, 
  0x0F, 0x00, 0x40, 0x1C, 0x08, 0x21, 0x00, 0x08, 0x21, 0x80, 0x03, 0x00, 
  0x00, 0xC0, 0x01, 0x00, 0x00, 0x00, 0x00, 0x40, 0x38, 0x40, 0x80, 0xE0, 
  0xE1, 0xFF, 0x01, 0xE0, 0x7F, 0x00, 0x7E, 0x02, 0x0F, 0x10, 0x00, 0x3C, 
  0x20, 0x00, 0x02, 0x00, 0x00, 0x82, 0x03, 0x00, 0x00, 0x80, 0x85, 0x24, 
  0x24, 0x81, 0x08, 0x00, 0x78, 0x00, 0x02, 0xE4, 0x83, 0xFF, 0x04, 0x80, 
  0x3F, 0x21, 0x3F, 0x90, 0x4F, 0x80, 0x40, 0x1E, 0x40, 0x00, 0x80, 0x60, 
  0x08, 0x80, 0x03, 0x00, 0x00, 0x80, 0x43, 0x00, 0x00, 0x40, 0x20, 0x00, 
  0x78, 0x80, 0x01, 0xE0, 0x07, 0xFF, 0x11, 0x80, 0x1F, 0x80, 0x1F, 0xC0, 
  0x0F, 0x00, 0x08, 0x0E, 0x00, 0x48, 0x00, 0x00, 0x40, 0xC0, 0x01, 0x00, 
  0x00, 0x80, 0x03, 0x00, 0x00, 0x02, 0x00, 0x84, 0x70, 0x04, 0x40, 0x80, 
  0x07, 0xE2, 0x0F, 0x04, 0x20, 0xE0, 0x0F, 0xE0, 0x03, 0x01, 0x02, 0x0E, 
  0x02, 0x01, 0x10, 0x02, 0x01, 0xC8, 0x01, 0x00, 0x00, 0x00, 0x03, 0x10, 
  0x04, 0x02, 0x02, 0x00, 0xF8, 0x00, 0x80, 0x80, 0x0F, 0xC4, 0x3F, 0x00, 
  0x00, 0xF9, 0x07, 0xE0, 0x03, 0x00, 0x00, 0x0F, 0x02, 0x00, 0x00, 0x04, 
  0x10, 0xC0, 0x00, 0x00, 0x00, 0x00, 0x07, 0x80, 0x01, 0x00, 0x04, 0x01, 
  0xE0, 0x00, 0x00, 0x01, 0x1F, 0x00, 0xFF, 0x04, 0x00, 0xFE, 0x01, 0xFF, 
  0x01, 0x14, 0x80, 0x47, 0x00, 0x40, 0x04, 0x10, 0x00, 0xE8, 0x00, 0x00, 
  0x00, 0x00, 0x87, 0x00, 0x00, 0x00, 0x80, 0x00, 0xE1, 0x01, 0x00, 0x00, 
  0x3E, 0x20, 0xFE, 0x1B, 0xE4, 0xFF, 0x80, 0xFF, 0x81, 0x00, 0x10, 0x87, 
  0x20, 0x08, 0x48, 0x00, 0x00, 0xE0, 0x00, 0x00, 0x00, 0x00, 0x07, 0x02, 
  0x80, 0x20, 0x00, 0x10, 0xE0, 0x19, 0x04, 0x10, 0xFE, 0x08, 0xF8, 0xFF, 
  0xFF, 0x3F, 0xE0, 0xFF, 0x00, 0x00, 0x88, 0x03, 0x40, 0x00, 0x00, 0x00, 
  0x04, 0x60, 0x00, 0x00, 0x00, 0x00, 0x8E, 0x00, 0x00, 0x08, 0x80, 0x40, 
  0xC0, 0x01, 0x00, 0x40, 0xF8, 0x80, 0xE2, 0xFF, 0xFF, 0x07, 0xC8, 0xFF, 
  0x11, 0x80, 0xC0, 0x03, 0x08, 0x01, 0x20, 0x80, 0x40, 0x70, 0x00, 0x00, 
  0x00, 0x00, 0x0E, 0x01, 0x80, 0x40, 0x00, 0x04, 0xC0, 0x83, 0x12, 0x04, 
  0xF8, 0x01, 0x00, 0xFF, 0xFF, 0x05, 0xE0, 0xFF, 0x00, 0x02, 0xE0, 0x01, 
  0x00, 0x20, 0x00, 0x02, 0x10, 0x72, 0x00, 0x00, 0x00, 0x00, 0x1C, 0x20, 
  0x06, 0x00, 0x01, 0x08, 0x86, 0x07, 0x00, 0x04, 0xF0, 0x03, 0x20, 0xD4, 
  0x1B, 0x20, 0xE0, 0xFF, 0x00, 0x01, 0xE0, 0x01, 0x10, 0x10, 0x00, 0x01, 
  0x02, 0x70, 0x00, 0x00, 0x00, 0x00, 0x0C, 0x40, 0x00, 0x04, 0x08, 0x00, 
  0x00, 0x0F, 0x20, 0x00, 0xC0, 0x1F, 0x00, 0x00, 0x00, 0x00, 0xE0, 0xFF, 
  0x01, 0x20, 0xE2, 0x28, 0x00, 0x00, 0x01, 0x40, 0x00, 0x38, 0x00, 0x00, 
  0x00, 0x00, 0x1C, 0x00, 0x00, 0x08, 0x00, 0x11, 0x00, 0x0F, 0x00, 0x11, 
  0xC0, 0x3F, 0x20, 0x00, 0x40, 0x02, 0xF9, 0xFF, 0x00, 0x00, 0xF2, 0x00, 
  0x01, 0x02, 0x04, 0x04, 0x80, 0x38, 0x00, 0x00, 0x00, 0x00, 0x18, 0x08, 
  0x20, 0x00, 0x02, 0x00, 0x20, 0x0F, 0x02, 0x00, 0x01, 0x7F, 0x00, 0x14, 
  0x00, 0x00, 0xFE, 0x7F, 0x08, 0x28, 0x70, 0x02, 0x08, 0x00, 0x02, 0x00, 
  0x00, 0x18, 0x00, 0x00, 0x00, 0x00, 0x38, 0x00, 0x08, 0x01, 0x10, 0x00, 
  0x08, 0x9E, 0x10, 0x00, 0x02, 0xFC, 0x81, 0x00, 0x06, 0xA0, 0xFF, 0x7F, 
  0x00, 0x00, 0x78, 0x10, 0x40, 0x00, 0x80, 0x40, 0x02, 0x1A, 0x00, 0x00, 
  0x00, 0x00, 0x38, 0x10, 0x00, 0x40, 0x00, 0x04, 0x00, 0x3C, 0x00, 0x04, 
  0x80, 0xF8, 0x0F, 0x00, 0x00, 0xE0, 0x3F, 0x1F, 0x84, 0x00, 0x3C, 0x40, 
  0x00, 0x20, 0x00, 0x08, 0x04, 0x1C, 0x00, 0x00, 0x00, 0x00, 0x30, 0x04, 
  0x20, 0x00, 0x84, 0x40, 0x20, 0x3C, 0x04, 0x40, 0x00, 0xE2, 0x7F, 0x01, 
  0x00, 0xFE, 0x0F, 0x08, 0x00, 0x02, 0x9C, 0x04, 0x20, 0x08, 0x80, 0x20, 
  0x10, 0x0C, 0x00, 0x00, 0x00, 0x00, 0x70, 0x02, 0x80, 0x40, 0x00, 0x10, 
  0x80, 0xF8, 0x10, 0x10, 0x00, 0x80, 0xFF, 0x4F, 0xE2, 0xFF, 0x07, 0x00, 
  0x00, 0x04, 0x1F, 0x00, 0x01, 0x40, 0x00, 0x00, 0x00, 0x0E, 0x00, 0x00, 
  0x00, 0x00, 0x70, 0x00, 0x00, 0x04, 0x08, 0x02, 0x00, 0xF0, 0x00, 0x02, 
  0x14, 0x10, 0xFE, 0xFF, 0xFF, 0xFF, 0x00, 0x80, 0x12, 0x00, 0x0F, 0x00, 
  0x00, 0x00, 0x01, 0x00, 0x08, 0x0E, 0x00, 0x00, 0x00, 0x00, 0x70, 0x80, 
  0x01, 0x02, 0x00, 0x00, 0x01, 0xE0, 0x01, 0x00, 0x00, 0x00, 0xF0, 0xFF, 
  0xFF, 0x1F, 0x80, 0x01, 0x80, 0xC0, 0x07, 0x11, 0x10, 0x04, 0x04, 0x01, 
  0x00, 0x0E, 0x00, 0x00, 0x00, 0x00, 0xE0, 0x40, 0x00, 0x00, 0x00, 0x00, 
  0x40, 0xF0, 0x83, 0x02, 0x00, 0x00, 0xA0, 0xFF, 0xFF, 0x05, 0x00, 0x00, 
  0x00, 0xC0, 0x07, 0x00, 0x00, 0x40, 0x00, 0x02, 0x10, 0x07, 0x00, 0x00, 
  0x00, 0x00, 0xE0, 0x00, 0x04, 0x80, 0x04, 0x04, 0x00, 0xC0, 0x03, 0x00, 
  0x40, 0x10, 0x80, 0xA0, 0x2A, 0x00, 0x02, 0x80, 0x01, 0xC8, 0x03, 0x08, 
  0x08, 0x01, 0x00, 0x40, 0x00, 0x07, 0x00, 0x00, 0x00, 0x00, 0xC0, 0x05, 
  0x10, 0x00, 0x04, 0x10, 0x04, 0x81, 0x07, 0x60, 0x08, 0x20, 0x00, 0x08, 
  0x00, 0x04, 0x10, 0x00, 0x10, 0xF0, 0x01, 0x04, 0x00, 0x02, 0x24, 0x81, 
  0x81, 0x03, 0x00, 0x00, 0x00, 0x00, 0xC0, 0x01, 0x80, 0x08, 0x40, 0x80, 
  0x02, 0x00, 0x1F, 0x00, 0x01, 0x01, 0x01, 0x00, 0x00, 0x40, 0x80, 0x08, 
  0x00, 0xF0, 0x20, 0x40, 0x10, 0x80, 0x00, 0x00, 0x00, 0x03, 0x00, 0x00, 
  0x00, 0x00, 0xC0, 0x11, 0x02, 0x02, 0x10, 0x02, 0x10, 0x00, 0x1E, 0x08, 
  0x40, 0x00, 0x00, 0x00, 0x80, 0x00, 0x04, 0x02, 0x40, 0x7D, 0x00, 0x10, 
  0x04, 0x00, 0x10, 0x00, 0x80, 0x03, 0x00, 0x00, 0x00, 0x00, 0xC0, 0x01, 
  0x00, 0x10, 0x00, 0x00, 0x00, 0x40, 0x7C, 0x00, 0x00, 0x08, 0x01, 0x88, 
  0x00, 0x10, 0x00, 0x20, 0x04, 0x3C, 0x40, 0x00, 0x02, 0x00, 0x00, 0x00, 
  0x92, 0x03, 0x00, 0x00, 0x00, 0x00, 0x80, 0x03, 0x00, 0x20, 0x01, 0x00, 
  0x08, 0x08, 0x79, 0x10, 0x00, 0x40, 0x40, 0x00, 0x02, 0x02, 0x00, 0x20, 
  0x08, 0x1F, 0x08, 0x01, 0x00, 0x10, 0x81, 0x00, 0xC0, 0x01, 0x00, 0x00, 
  0x00, 0x00, 0x80, 0x03, 0x21, 0x00, 0x00, 0x21, 0x00, 0x01, 0xF0, 0x01, 
  0x88, 0x00, 0x20, 0x40, 0x04, 0x00, 0x11, 0x00, 0x00, 0x0F, 0x01, 0x00, 
  0x80, 0x04, 0x00, 0x28, 0xC0, 0x01, 0x00, 0x00, 0x00, 0x00, 0x00, 0x03, 
  0x10, 0x00, 0x04, 0x00, 0x00, 0x08, 0xE0, 0x83, 0x00, 0x88, 0x00, 0x02, 
  0x00, 0x04, 0x20, 0x80, 0xC0, 0x07, 0x00, 0x84, 0x14, 0x00, 0x00, 0x02, 
  0xD0, 0x01, 0x00, 0x00, 0x00, 0x00, 0x00, 0x07, 0x80, 0x00, 0x01, 0x04, 
  0x10, 0x00, 0xE4, 0x07, 0x04, 0x00, 0x40, 0x00, 0x00, 0x01, 0x40, 0x00, 
  0xE0, 0x43, 0x04, 0x00, 0x00, 0x81, 0x28, 0x00, 0xE0, 0x00, 0x00, 0x00, 
  0x00, 0x00, 0x00, 0x87, 0x00, 0x24, 0x00, 0x48, 0x20, 0x80, 0x80, 0x1F, 
  0x04, 0x00, 0x08, 0x20, 0x24, 0x00, 0x01, 0x08, 0xF8, 0x00, 0x48, 0x00, 
  0x00, 0x00, 0x00, 0x40, 0xE1, 0x00, 0x00, 0x00, 0x00, 0x00, 0x00, 0x07, 
  0x01, 0x00, 0x80, 0x00, 0x01, 0x04, 0x00, 0x3E, 0x40, 0x20, 0x00, 0x08, 
  0x00, 0x80, 0x00, 0x40, 0xFC, 0x04, 0x00, 0x40, 0x00, 0x08, 0x00, 0x20, 
  0xE0, 0x00, 0x00, 0x00, 0x00, 0x00, 0x00, 0x8E, 0x00, 0x08, 0x00, 0x10, 
  0x00, 0x00, 0x04, 0x7C, 0x20, 0x02, 0x21, 0x00, 0x10, 0x00, 0x01, 0x00, 
  0x3F, 0x21, 0x20, 0x01, 0x00, 0x00, 0x01, 0x08, 0x60, 0x00, 0x00, 0x00, 
  0x00, 0x00, 0x00, 0x0E, 0x01, 0x00, 0x80, 0x00, 0x08, 0x02, 0x02, 0xF8, 
  0x01, 0x08, 0x00, 0x20, 0x00, 0x80, 0x00, 0x80, 0x1F, 0x00, 0x00, 0x00, 
  0x81, 0x24, 0x40, 0x00, 0x70, 0x00, 0x00, 0x00, 0x00, 0x00, 0x00, 0x1E, 
  0x40, 0x81, 0x02, 0x00, 0x40, 0x10, 0x00, 0xE1, 0x07, 0x40, 0x10, 0x00, 
  0x81, 0x02, 0x80, 0xF0, 0x07, 0x00, 0x00, 0x28, 0x02, 0x00, 0x80, 0x10, 
  0x71, 0x00, 0x00, 0x00, 0x00, 0x00, 0x00, 0x0C, 0x20, 0x00, 0x04, 0x01, 
  0x00, 0x80, 0x80, 0xC0, 0x1F, 0x00, 0x00, 0x02, 0x00, 0x04, 0x20, 0xF9, 
  0x03, 0x10, 0x01, 0x00, 0x40, 0x00, 0x02, 0x00, 0x38, 0x00, 0x00, 0x00, 
  0x00, 0x00, 0x00, 0x1C, 0x02, 0x20, 0x00, 0x02, 0x11, 0x00, 0x00, 0x40, 
  0x7F, 0x20, 0x20, 0x40, 0x00, 0x80, 0x01, 0xFE, 0x00, 0x00, 0x40, 0x00, 
  0x80, 0x20, 0x20, 0x08, 0x38, 0x00, 0x00, 0x00, 0x00, 0x00, 0x00, 0x1C, 
  0x00, 0x08, 0x20, 0x80, 0x00, 0x08, 0x28, 0x00, 0xFE, 0x01, 0x08, 0x04, 
  0x40, 0x00, 0x80, 0x3F, 0x28, 0x20, 0x20, 0x80, 0x00, 0x40, 0x00, 0x00, 
  0x38, 0x00, 0x00, 0x00, 0x00, 0x00, 0x00, 0x38, 0x00, 0x00, 0x08, 0x40, 
  0x00, 0x00, 0x00, 0x24, 0xF8, 0x0F, 0x00, 0x80, 0x04, 0x00, 0xF0, 0x0F, 
  0x00, 0x20, 0x01, 0x01, 0x00, 0x00, 0x02, 0x80, 0x1C, 0x00, 0x00, 0x00, 
  0x00, 0x00, 0x00, 0x38, 0x20, 0x00, 0x00, 0x01, 0x04, 0x10, 0x01, 0x00, 
  0xC0, 0x7F, 0x01, 0x00, 0x02, 0x14, 0xFE, 0x0B, 0x02, 0x02, 0x00, 0x08, 
  0x04, 0x01, 0x10, 0x04, 0x1C, 0x00, 0x00, 0x00, 0x00, 0x00, 0x00, 0x38, 
  0x08, 0x01, 0x10, 0x00, 0x40, 0x00, 0x40, 0x00, 0x00, 0xFF, 0x07, 0x00, 
  0x00, 0xE0, 0xFF, 0x20, 0x40, 0x08, 0x02, 0x00, 0x10, 0x01, 0x04, 0x00, 
  0x1C, 0x00, 0x00, 0x00, 0x00, 0x00, 0x00, 0x70, 0x40, 0x40, 0x80, 0x00, 
  0x10, 0x06, 0x00, 0x08, 0x10, 0xF8, 0xFF, 0x17, 0x68, 0xFF, 0x1F, 0x00, 
  0x00, 0x00, 0x00, 0x14, 0x02, 0x00, 0x00, 0x00, 0x0E, 0x00, 0x00, 0x00, 
  0x00, 0x00, 0x00, 0x70, 0x00, 0x80, 0x00, 0x28, 0x02, 0x00, 0x00, 0x80, 
  0x02, 0xC0, 0xFF, 0xFF, 0xFF, 0xFF, 0x05, 0x00, 0x80, 0x80, 0x80, 0x00, 
  0x00, 0x40, 0x00, 0x12, 0x0E, 0x00, 0x00, 0x00, 0x00, 0x00, 0x00, 0x70, 
  0x04, 0x02, 0x01, 0x00, 0x00, 0x40, 0x84, 0x00, 0x40, 0x00, 0xFC, 0xFF, 
  0xFF, 0x3F, 0x00, 0x08, 0x08, 0x00, 0x10, 0x00, 0x20, 0x20, 0x40, 0x80, 
  0x0E, 0x00, 0x00, 0x00, 0x00, 0x00, 0x00, 0xE0, 0x08, 0x00, 0x00, 0x20, 
  0x02, 0x00, 0x00, 0x02, 0x00, 0x40, 0x82, 0xFD, 0xBF, 0x02, 0x02, 0x80, 
  0x00, 0x20, 0x40, 0x20, 0x02, 0x80, 0x20, 0x00, 0x07, 0x00, 0x00, 0x00, 
  0x00, 0x00, 0x00, 0xE0, 0x00, 0x04, 0x01, 0x08, 0x00, 0x40, 0x04, 0x04, 
  0x01, 0x01, 0x00, 0x08, 0x00, 0x00, 0x04, 0x12, 0x10, 0x40, 0x00, 0x40, 
  0x80, 0x00, 0x40, 0x00, 0x07, 0x00, 0x00, 0x00, 0x00, 0x00, 0x00, 0xE0, 
  0x80, 0x00, 0x80, 0x00, 0x20, 0x08, 0x00, 0x40, 0x00, 0x02, 0x20, 0x00, 
  0x00, 0x01, 0x80, 0x00, 0x20, 0x00, 0x04, 0x00, 0x40, 0x00, 0x01, 0x08, 
  0x07, 0x00, 0x00, 0x00, 0x00, 0x00, 0x00, 0xC0, 0x01, 0x10, 0x10, 0x00, 
  0x40, 0x02, 0x10, 0x00, 0x10, 0x80, 0x00, 0x40, 0x08, 0x10, 0x00, 0x00, 
  0x01, 0x01, 0x00, 0x01, 0x01, 0x08, 0x00, 0x20, 0x03, 0x00, 0x00, 0x00, 
  0x00, 0x00, 0x00, 0xC0, 0x81, 0x04, 0x00, 0x01, 0x04, 0x20, 0x04, 0x40, 
  0x40, 0x00, 0x88, 0x00, 0x20, 0x01, 0x40, 0x84, 0x00, 0x01, 0x10, 0x01, 
  0x00, 0x00, 0x01, 0x90, 0x03, 0x00, 0x00, 0x00, 0x00, 0x00, 0x00, 0xC0, 
  0x01, 0x02, 0x28, 0x40, 0x00, 0x00, 0x02, 0x01, 0x08, 0x00, 0x00, 0x00, 
  0x01, 0x00, 0x00, 0x00, 0x08, 0x00, 0x04, 0x00, 0x00, 0x12, 0x00, 0x80, 
  0x03, 0x00, 0x00, 0x00, 0x00, 0x00, 0x00, 0x80, 0x03, 0x00, 0x00, 0x80, 
  0x10, 0x00, 0x00, 0x00, 0x04, 0x14, 0x00, 0x14, 0x00, 0x80, 0x01, 0x00, 
  0x40, 0x40, 0x00, 0x40, 0x28, 0x20, 0x80, 0xC1, 0x01, 0x00, 0x00, 0x00, 
  0x00, 0x00, 0x00, 0x80, 0x0B, 0x80, 0x00, 0x02, 0x00, 0x88, 0x80, 0x08, 
  0x00, 0x00, 0x40, 0x00, 0x10, 0x10, 0x08, 0x08, 0x00, 0x20, 0x20, 0x20, 
  0x00, 0x00, 0x20, 0xC0, 0x01, 0x00, 0x00, 0x00, 0x00, 0x00, 0x00, 0x00, 
  0x03, 0x00, 0x04, 0x01, 0x01, 0x00, 0x40, 0x20, 0x00, 0x01, 0x02, 0x00, 
  0x00, 0x00, 0x00, 0x00, 0x01, 0x01, 0x02, 0x00, 0x00, 0x10, 0x02, 0xC1, 
  0x00, 0x00, 0x00, 0x00, 0x00, 0x00, 0x00, 0x00, 0x07, 0x80, 0x02, 0x00, 
  0x08, 0x02, 0x00, 0x00, 0x08, 0x00, 0x08, 0x08, 0x08, 0x02, 0x84, 0x10, 
  0x00, 0x00, 0x00, 0x02, 0x40, 0x00, 0x00, 0xE0, 0x00, 0x00, 0x00, 0x00, 
  0x00, 0x00, 0x00, 0x00, 0x07, 0x01, 0x80, 0x00, 0x40, 0x10, 0x06, 0x02, 
  0x00, 0x80, 0x40, 0x04, 0x20, 0x21, 0x40, 0x00, 0x00, 0x10, 0x10, 0x11, 
  0x08, 0x01, 0x20, 0xE0, 0x00, 0x00, 0x00, 0x00, 0x00, 0x00, 0x00, 0x00, 
  0x47, 0x08, 0x00, 0x10, 0x00, 0x00, 0x00, 0x10, 0x84, 0x20, 0x00, 0x80, 
  0x00, 0x00, 0x00, 0x08, 0x22, 0x02, 0x01, 0x00, 0x01, 0x20, 0x00, 0xE0, 
  0x00, 0x00, 0x00, 0x00, 0x00, 0x00, 0x00, 0x00, 0x06, 0x00, 0x80, 0x00, 
  0x20, 0x04, 0x00, 0x00, 0x00, 0x00, 0x40, 0x10, 0x00, 0x00, 0x00, 0x20, 
  0x00, 0x00, 0x00, 0x00, 0x20, 0x00, 0x08, 0x60, 0x00, 0x00, 0x00, 0x00, 
  0x00, 0x00, 0x00, 0x00, 0x0E, 0x14, 0x00, 0x48, 0x01, 0x00, 0xFF, 0xFF, 
  0x00, 0x08, 0x01, 0x00, 0xF9, 0xFF, 0x03, 0x40, 0x10, 0xFF, 0x87, 0xFF, 
  0x03, 0x40, 0x20, 0x78, 0x00, 0x00, 0x00, 0x00, 0x00, 0x00, 0x00, 0x00, 
  0x9E, 0x00, 0x02, 0x04, 0x00, 0x00, 0xFF, 0xFF, 0x21, 0x20, 0x00, 0x02, 
  0xF8, 0xFF, 0x0F, 0x00, 0x84, 0xFF, 0xC7, 0xFF, 0x03, 0x08, 0x00, 0x30, 
  0x00, 0x00, 0x00, 0x00, 0x00, 0x00, 0x00, 0x00, 0x0C, 0x00, 0x04, 0x00, 
  0x10, 0x08, 0xFF, 0xFF, 0x41, 0x00, 0x10, 0x00, 0xFC, 0xFF, 0x1F, 0x01, 
  0x00, 0xFF, 0x8F, 0xFF, 0x03, 0x01, 0x02, 0x38, 0x00, 0x00, 0x00, 0x00, 
  0x00, 0x00, 0x00, 0x00, 0x1C, 0x10, 0x00, 0x00, 0x00, 0x00, 0xFE, 0xFF, 
  0x01, 0x00, 0x10, 0x02, 0xF8, 0xFF, 0x2F, 0x40, 0x11, 0xFF, 0xCF, 0xFF, 
  0x03, 0x09, 0x00, 0x38, 0x00, 0x00, 0x00, 0x00, 0x00, 0x00, 0x00, 0x00, 
  0x1C, 0xC0, 0x9F, 0x9F, 0xFF, 0xFD, 0xFE, 0xF7, 0xFE, 0xF3, 0xC1, 0x7F, 
  0xF9, 0xFF, 0x1F, 0xFC, 0x07, 0xFF, 0xCF, 0xFF, 0xC1, 0x7F, 0x08, 0x38, 
  0x00, 0x00, 0x00, 0x00, 0x00, 0x00, 0x00, 0x00, 0x38, 0xE0, 0xFF, 0x3F, 
  0xFF, 0xFF, 0xFC, 0xF1, 0xFD, 0xFF, 0xF1, 0xFF, 0xF0, 0xCF, 0x0F, 0xFE, 
  0x4F, 0xFC, 0xDF, 0xFF, 0xE0, 0xFF, 0x00, 0x1C, 0x00, 0x00, 0x00, 0x00, 
  0x00, 0x00, 0x00, 0x00, 0x38, 0xC2, 0xFF, 0x7F, 0xFF, 0xFF, 0xFC, 0x41, 
  0xFE, 0xFF, 0xF9, 0xFF, 0xE1, 0xCF, 0x1F, 0xDF, 0x1F, 0xFC, 0xFF, 0xFF, 
  0xF8, 0xFE, 0x89, 0x1C, 0x00, 0x00, 0x00, 0x00, 0x00, 0x00, 0x00, 0x00, 
  0x38, 0xC0, 0xFF, 0x7F, 0xFF, 0xFD, 0xFC, 0x0F, 0xFC, 0xFF, 0xFD, 0xF9, 
  0xE3, 0xFF, 0x0F, 0x9F, 0x1F, 0xFC, 0xFF, 0xFF, 0xF9, 0xF9, 0x01, 0x1C, 
  0x00, 0x00, 0x00, 0x00, 0x00, 0x00, 0x00, 0x00, 0x70, 0x81, 0x7F, 0xFF, 
  0xFE, 0xFD, 0xFC, 0x1F, 0xFC, 0xFB, 0xFC, 0xF9, 0xF3, 0xFF, 0x87, 0xBF, 
  0x3F, 0x9E, 0xFF, 0xFE, 0xF0, 0xFD, 0x01, 0x0E, 0x00, 0x00, 0x00, 0x00, 
  0x00, 0x00, 0x00, 0x00, 0x70, 0xA0, 0x3F, 0x7E, 0xFE, 0x3C, 0xFC, 0x0B, 
  0xF0, 0x3F, 0xFE, 0xF1, 0xE3, 0xFF, 0x03, 0xDF, 0x1F, 0xBC, 0xFF, 0xFE, 
  0xF4, 0xFD, 0x41, 0x0E, 0x00, 0x00, 0x00, 0x00, 0x00, 0x00, 0x00, 0x00, 
  0x70, 0x00, 0x3F, 0xFE, 0xFC, 0x3D, 0xFC, 0xE1, 0xE1, 0x3F, 0xFC, 0xF8, 
  0xF3, 0xEF, 0x2F, 0xFC, 0x3F, 0xBE, 0xFF, 0xFE, 0xE0, 0xFF, 0x21, 0x0E, 
  0x00, 0x00, 0x00, 0x00, 0x00, 0x00, 0x00, 0x00, 0x60, 0x80, 0x3F, 0xFE, 
  0xFA, 0x3F, 0xFC, 0xF1, 0xF9, 0x3F, 0xFC, 0xF1, 0xF3, 0xEF, 0x6F, 0xFF, 
  0x9F, 0xBC, 0xFF, 0xFE, 0xF1, 0xFF, 0x05, 0x07, 0x00, 0x00, 0x00, 0x00, 
  0x00, 0x00, 0x00, 0x00, 0xE0, 0x88, 0x3F, 0x7F, 0xF8, 0x1F, 0xFF, 0xFF, 
  0x7C, 0xFF, 0xFD, 0xF8, 0xFB, 0xDF, 0xAF, 0x9F, 0xFF, 0x7F, 0x7F, 0xFF, 
  0xFD, 0xF9, 0x0D, 0x07, 0x00, 0x00, 0x00, 0x00, 0x00, 0x00, 0x00, 0x00, 
  0xE0, 0x80, 0xBF, 0x7F, 0xF0, 0x8F, 0xFF, 0xFF, 0xFE, 0xFF, 0xFD, 0xFF, 
  0xFD, 0xFF, 0xEF, 0xBF, 0xDF, 0xFF, 0x7F, 0xFF, 0xFB, 0xFD, 0x0D, 0x07, 
  0x00, 0x00, 0x00, 0x00, 0x00, 0x00, 0x00, 0x00, 0xC0, 0x01, 0xFF, 0x7F, 
  0xF0, 0x0F, 0xFF, 0xFF, 0x7E, 0xFF, 0xF9, 0xFF, 0xF9, 0xDF, 0xFF, 0xFF, 
  0xFF, 0x7F, 0x7E, 0xFF, 0xFF, 0xFF, 0x8F, 0x03, 0x00, 0x00, 0x00, 0x00, 
  0x00, 0x00, 0x00, 0x00, 0xC0, 0x85, 0xFF, 0x3F, 0xE0, 0x0F, 0xFE, 0xFF, 
  0xFF, 0xFF, 0xF1, 0xFF, 0xF9, 0xFF, 0xBF, 0xFF, 0xFF, 0xFF, 0xBE, 0xFF, 
  0xFB, 0xFF, 0x87, 0x03, 0x00, 0x00, 0x00, 0x00, 0x00, 0x00, 0x00, 0x00, 
  0xC0, 0x01, 0xFF, 0x1F, 0xEE, 0x07, 0xFE, 0xFF, 0x7C, 0xFF, 0xC1, 0x3F, 
  0xB8, 0x87, 0x1F, 0xBF, 0x3E, 0x5E, 0x1C, 0xDE, 0xF1, 0xF3, 0x83, 0x03, 
  0x00, 0x00, 0x00, 0x00, 0x00, 0x00, 0x00, 0x00, 0x80, 0xC1, 0x3F, 0x00, 
  0xFF, 0x23, 0x00, 0x00, 0x00, 0x00, 0x82, 0x00, 0x10, 0x00, 0x04, 0x08, 
  0x10, 0x02, 0x00, 0x82, 0x81, 0x20, 0x80, 0x01, 0x00, 0x00, 0x00, 0x00, 
  0x00, 0x00, 0x00, 0x00, 0x80, 0xC3, 0xFF, 0x10, 0xDF, 0x03, 0x00, 0x00, 
  0x00, 0x00, 0x00, 0x02, 0x00, 0x82, 0x00, 0x00, 0x00, 0x00, 0x09, 0x00, 
  0x00, 0x00, 0xD0, 0x01, 0x00, 0x00, 0x00, 0x00, 0x00, 0x00, 0x00, 0x00, 
  0x80, 0xC3, 0x7F, 0x00, 0xDF, 0x23, 0x18, 0x00, 0x00, 0x20, 0x40, 0x80, 
  0x00, 0x01, 0x00, 0x00, 0x11, 0x00, 0x20, 0x00, 0x00, 0x00, 0xC1, 0x01, 
  0x00, 0x00, 0x00, 0x00, 0x00, 0x00, 0x00, 0x00, 0x00, 0xC7, 0xFF, 0xA0, 
  0xFF, 0x01, 0x00, 0x01, 0x20, 0x40, 0x00, 0x10, 0x08, 0x08, 0x60, 0x20, 
  0x00, 0x20, 0x80, 0x00, 0x80, 0x01, 0xE8, 0x00, 0x00, 0x00, 0x00, 0x00, 
  0x00, 0x00, 0x00, 0x00, 0x00, 0xD7, 0xFF, 0x00, 0xFF, 0x01, 0x00, 0x80, 
  0x12, 0x00, 0x04, 0x02, 0x00, 0x40, 0x01, 0x08, 0x00, 0x10, 0x00, 0x24, 
  0x00, 0x10, 0xE0, 0x00, 0x00, 0x00, 0x00, 0x00, 0x00, 0x00, 0x00, 0x00, 
  0x00, 0x87, 0xAA, 0x02, 0x7C, 0x00, 0x00, 0x10, 0x00, 0x01, 0x00, 0x00, 
  0x10, 0x00, 0x00, 0x00, 0x02, 0x02, 0x01, 0x00, 0x08, 0x00, 0xE0, 0x00, 
  0x00, 0x00, 0x00, 0x00, 0x00, 0x00, 0x00, 0x00, 0x00, 0x0E, 0x00, 0x20, 
  0x02, 0x80, 0x00, 0x00, 0x04, 0x01, 0x10, 0x02, 0x00, 0x40, 0x01, 0x10, 
  0x80, 0x08, 0x00, 0x08, 0x02, 0x80, 0x70, 0x00, 0x00, 0x00, 0x00, 0x00, 
  0x00, 0x00, 0x00, 0x00, 0x00, 0x1E, 0x00, 0x01, 0x80, 0x00, 0x81, 0x28, 
  0x00, 0x00, 0x04, 0x80, 0x06, 0x01, 0x00, 0x80, 0x10, 0x00, 0x01, 0x00, 
  0x10, 0x04, 0x60, 0x00, 0x00, 0x00, 0x00, 0x00, 0x00, 0x00, 0x00, 0x00, 
  0x00, 0x4E, 0x12, 0x00, 0x00, 0x14, 0x42, 0x00, 0x00, 0x40, 0x00, 0x00, 
  0x00, 0x00, 0x80, 0x00, 0x02, 0x80, 0x60, 0x81, 0x20, 0x08, 0x72, 0x00, 
  0x00, 0x00, 0x00, 0x00, 0x00, 0x00, 0x00, 0x00, 0x00, 0x0C, 0x00, 0x10, 
  0x10, 0x00, 0x00, 0x00, 0x80, 0x20, 0x20, 0x08, 0x40, 0x10, 0x20, 0x01, 
  0x00, 0x00, 0x00, 0x00, 0x00, 0x00, 0x38, 0x00, 0x00, 0x00, 0x00, 0x00, 
  0x00, 0x00, 0x00, 0x00, 0x00, 0x1C, 0x00, 0x00, 0x00, 0x04, 0x40, 0x10, 
  0x40, 0x00, 0x02, 0x00, 0x20, 0x00, 0x02, 0x28, 0x01, 0x02, 0x01, 0x20, 
  0x84, 0x10, 0x38, 0x00, 0x00, 0x00, 0x00, 0x00, 0x00, 0x00, 0x00, 0x00, 
  0x00, 0x1C, 0x28, 0x20, 0x04, 0x10, 0x00, 0x80, 0x01, 0x04, 0x80, 0x20, 
  0x08, 0x20, 0x00, 0x00, 0x00, 0x08, 0x00, 0x08, 0x00, 0x00, 0x38, 0x00, 
  0x00, 0x00, 0x00, 0x00, 0x00, 0x00, 0x00, 0x00, 0x00, 0x18, 0x00, 0x10, 
  0x48, 0x00, 0x00, 0x00, 0x02, 0x10, 0x40, 0x08, 0x00, 0x12, 0x20, 0x00, 
  0x80, 0x40, 0x00, 0x00, 0x00, 0x00, 0x1C, 0x00, 0x00, 0x00, 0x00, 0x00, 
  0x00, 0x00, 0x00, 0x00, 0x00, 0x38, 0x00, 0x02, 0x00, 0x00, 0x04, 0x02, 
  0x80, 0x00, 0x01, 0x00, 0x00, 0x00, 0x08, 0x00, 0x20, 0x00, 0x20, 0x00, 
  0x40, 0x04, 0x1C, 0x00, 0x00, 0x00, 0x00, 0x00, 0x00, 0x00, 0x00, 0x00, 
  0x00, 0x38, 0x01, 0x08, 0x20, 0x80, 0x10, 0x00, 0x00, 0x08, 0x00, 0x20, 
  0x01, 0x04, 0x00, 0x00, 0x00, 0x40, 0x08, 0x01, 0x01, 0x40, 0x1C, 0x00, 
  0x00, 0x00, 0x00, 0x00, 0x00, 0x00, 0x00, 0x00, 0x00, 0x70, 0x40, 0x00, 
  0x00, 0x02, 0x04, 0x01, 0x00, 0x01, 0x00, 0x40, 0x40, 0x00, 0x20, 0x81, 
  0x08, 0x01, 0x40, 0x40, 0x08, 0x20, 0x0E, 0x00, 0x00, 0x00, 0x00, 0x00, 
  0x00, 0x00, 0x00, 0x00, 0x00, 0x70, 0x80, 0x00, 0x00, 0x01, 0x00, 0x20, 
  0x10, 0x80, 0x00, 0x00, 0x80, 0x00, 0x00, 0x40, 0x20, 0x00, 0x00, 0x80, 
  0x20, 0x00, 0x0E, 0x00, 0x00, 0x00, 0x00, 0x00, 0x00, 0x00, 0x00, 0x00, 
  0x00, 0x70, 0x04, 0x80, 0x01, 0x40, 0x20, 0x40, 0x04, 0x00, 0x28, 0x01, 
  0x02, 0x80, 0x02, 0x02, 0x00, 0x10, 0x04, 0x02, 0x00, 0x02, 0x0E, 0x00, 
  0x00, 0x00, 0x00, 0x00, 0x00, 0x00, 0x00, 0x00, 0x00, 0x60, 0x08, 0x02, 
  0x01, 0x40, 0x40, 0x01, 0x28, 0x01, 0x28, 0x01, 0x20, 0x01, 0x40, 0x20, 
  0x01, 0x40, 0x40, 0x01, 0x40, 0x00, 0x07, 0x00, 0x00, 0x00, 0x00, 0x00, 
  0x00, 0x00, 0x00, 0x00, 0x00, 0xE0, 0x00, 0x04, 0x00, 0x02, 0x00, 0x00, 
  0x00, 0x00, 0x00, 0x00, 0x00, 0x00, 0x01, 0x00, 0x00, 0x02, 0x00, 0x00, 
  0x00, 0x02, 0x06, 0x00, 0x00, 0x00, 0x00, 0x00, 0x00, 0x00, 0x00, 0x00, 
  0x00, 0xE0, 0x11, 0x80, 0x00, 0x02, 0x04, 0x00, 0x00, 0x80, 0x00, 0x80, 
  0x02, 0x00, 0x02, 0x02, 0x00, 0x82, 0x04, 0x00, 0x04, 0x10, 0x07, 0x00, 
  0x00, 0x00, 0x00, 0x00, 0x00, 0x00, 0x00, 0x00, 0x00, 0xC0, 0x00, 0x00, 
  0x20, 0x80, 0x10, 0x10, 0x00, 0x10, 0x00, 0x10, 0x10, 0x10, 0x80, 0x10, 
  0x20, 0x00, 0x10, 0x10, 0x02, 0x00, 0x03, 0x00, 0x00, 0x00, 0x00, 0x00, 
  0x00, 0x00, 0x00, 0x00, 0x00, 0xC0, 0x05, 0x80, 0x08, 0x00, 0x00, 0x00, 
  0x00, 0x00, 0x01, 0x00, 0x04, 0x00, 0x00, 0x04, 0x08, 0x00, 0x00, 0x00, 
  0x20, 0x82, 0x03, 0x00, 0x00, 0x00, 0x00, 0x00, 0x00, 0x00, 0x00, 0x00, 
  0x00, 0xC0, 0x01, 0x00, 0x40, 0x00, 0x04, 0x48, 0x81, 0x08, 0x40, 0x08, 
  0x00, 0x48, 0x00, 0x00, 0x40, 0x00, 0x04, 0x48, 0x00, 0xC0, 0x03, 0x00, 
  0x00, 0x00, 0x00, 0x00, 0x00, 0x00, 0x00, 0x00, 0x00, 0x80, 0x01, 0x01, 
  0x00, 0x00, 0x00, 0x04, 0x40, 0x20, 0x40, 0x20, 0x00, 0x04, 0x10, 0x00, 
  0x00, 0x00, 0x00, 0x04, 0x00, 0x80, 0x01, 0x00, 0x00, 0x00, 0x00, 0x00, 
  0x00, 0x00, 0x00, 0x00, 0x00, 0x80, 0x83, 0x08, 0x04, 0x14, 0x40, 0x00, 
  0x02, 0x00, 0x02, 0x00, 0x80, 0x00, 0x04, 0x80, 0x04, 0x14, 0x40, 0x00, 
  0x08, 0xC1, 0x01, 0x00, 0x00, 0x00, 0x00, 0x00, 0x00, 0x00, 0x00, 0x00, 
  0x00, 0x80, 0x03, 0x00, 0x00, 0x00, 0x00, 0x00, 0x00, 0x00, 0x00, 0x00, 
  0x00, 0x00, 0x00, 0x00, 0x00, 0x00, 0x02, 0x00, 0x00, 0xC0, 0x01, 0x00, 
  0x00, 0x00, 0x00, 0x00, 0x00, 0x00, 0x00, 0x00, 0x00, 0x00, 0x03, 0x00, 
  0x00, 0x00, 0x02, 0x04, 0x00, 0x00, 0x00, 0x00, 0x02, 0x04, 0x00, 0x22, 
  0x00, 0x00, 0x00, 0x04, 0x80, 0xE0, 0x00, 0x00, 0x00, 0x00, 0x00, 0x00, 
  0x00, 0x00, 0x00, 0x00, 0x00, 0x00, 0x07, 0x40, 0x00, 0x00, 0x00, 0x00, 
  0x80, 0x00, 0x40, 0x00, 0x00, 0x00, 0x00, 0x00, 0x00, 0x00, 0x00, 0x00, 
  0x00, 0xE0, 0x00, 0x00, 0x00, 0x00, 0x00, 0x00, 0x00, 0x00, 0x00, 0x00, 
  0x00, 0x00, 0xFF, 0xDF, 0xFF, 0xFF, 0xFF, 0xFF, 0xDF, 0xFF, 0xDF, 0xFF, 
  0xFF, 0xFF, 0xFF, 0xF7, 0xFF, 0xFF, 0xFF, 0xFF, 0xFF, 0xFF, 0x00, 0x00, 
  0x00, 0x00, 0x00, 0x00, 0x00, 0x00, 0x00, 0x00, 0x00, 0x00, 0xFE, 0xFF, 
  0xFF, 0xFF, 0xFF, 0xFF, 0xFF, 0xFF, 0xFF, 0xFF, 0xFF, 0xFF, 0xFF, 0xFF, 
  0xFF, 0xFF, 0xFF, 0xFF, 0xFF, 0x7F, 0x00, 0x00, 0x00, 0x00, 0x00, 0x00, 
  };
